Coordinates
version=1
nRows=7
nColumns=40
inDegrees=yes

Units are S.I. units (second, meters, Newtons, ...)
Angles are in degrees.

endheader
time	pelvis_tilt	pelvis_list	pelvis_rotation	pelvis_tx	pelvis_ty	pelvis_tz	hip_flexion_r	hip_adduction_r	hip_rotation_r	knee_angle_r	knee_angle_r_beta	ankle_angle_r	subtalar_angle_r	mtp_angle_r	hip_flexion_l	hip_adduction_l	hip_rotation_l	knee_angle_l	knee_angle_l_beta	ankle_angle_l	subtalar_angle_l	mtp_angle_l	lumbar_extension	lumbar_bending	lumbar_rotation	arm_flex_r	arm_add_r	arm_rot_r	elbow_flex_r	pro_sup_r	wrist_flex_r	wrist_dev_r	arm_flex_l	arm_add_l	arm_rot_l	elbow_flex_l	pro_sup_l	wrist_flex_l	wrist_dev_l
     33.73864286	     -3.20910681	     -6.75033277	      3.72082060	      0.89432662	      0.92397253	      0.50794965	      2.16893085	      4.89480532	    -17.93852942	     12.99235041	     12.99235041	     14.94463495	      2.85576967	     -6.44631831	     27.82202518	     -9.64044161	     -0.66617221	     23.94425076	     23.94425076	      4.46633387	    -10.76106767	      6.90376477	     -9.38514042	      9.23125949	      2.92576524	     35.59718706	    -15.58603989	     -4.25337332	     84.46366148	     44.51177010	      0.00000000	      0.00000000	     -9.87203748	     -7.96053122	    -12.10505522	     31.77887150	     46.82115292	      0.00000000	      0.00000000
     33.75228571	     -3.14551014	     -6.63275099	      3.73752060	      0.89404489	      0.92358365	      0.50550816	      1.75578135	      4.60143656	    -17.79649985	     13.23692020	     13.23692020	     15.26050702	      2.68061404	     -6.35683969	     27.50437914	     -9.34395792	     -0.49046338	     24.50709379	     24.50709379	      4.93696596	    -11.15419444	      6.56919765	     -9.34856851	      9.00334462	      2.67011615	     34.80405128	    -15.55837888	     -4.13080264	     84.42958249	     44.50890011	      0.00000000	      0.00000000	     -9.69117130	     -8.04944346	    -12.03255442	     31.90598825	     46.81093833	      0.00000000	      0.00000000
     33.76592857	     -3.23947854	     -6.49513394	      3.72549097	      0.89338455	      0.92297865	      0.50293773	      1.87236148	      4.19237235	    -17.39542329	     14.19029176	     14.19029176	     16.19618565	      2.07639898	     -4.63503686	     27.43565264	     -8.92369949	     -0.01756523	     25.06883861	     25.06883861	      5.09522935	    -12.25219863	      6.03117454	     -9.24945180	      8.73326256	      2.86565444	     33.42324447	    -16.36492662	     -3.89388282	     85.69516145	     44.49134484	      0.00000000	      0.00000000	     -9.35218869	     -8.24227599	    -11.08247733	     32.62184837	     46.65455591	      0.00000000	      0.00000000
     33.77957143	     -3.16929991	     -6.37616047	      3.76474549	      0.89296059	      0.92271360	      0.50014937	      1.47995290	      3.86180437	    -17.30733059	     14.46529872	     14.46529872	     16.43556203	      1.93716998	     -4.57532029	     27.26252598	     -8.60869198	      0.19937346	     25.76703838	     25.76703838	      5.72163059	    -12.63864715	      5.66692835	     -9.22518215	      8.50805156	      2.58433739	     32.54915692	    -16.34282612	     -3.81579343	     85.46642857	     44.49616075	      0.00000000	      0.00000000	     -9.08647664	     -8.32685017	    -10.99147100	     32.73885222	     46.64372830	      0.00000000	      0.00000000
     33.79321429	     -3.11509209	     -6.23458068	      3.82261309	      0.89246519	      0.92251565	      0.49713242	      1.14122319	      3.48748004	    -17.20505537	     14.80263353	     14.80263353	     16.62489367	      1.74824346	     -4.51579817	     27.11690465	     -8.24487347	      0.39655347	     26.44923575	     26.44923575	      6.34272869	    -13.05522485	      5.34388656	     -9.22555632	      8.29863700	      2.25409449	     31.55054422	    -16.39807478	     -3.72156098	     85.17627595	     44.50095952	      0.00000000	      0.00000000	     -8.73104106	     -8.33978874	    -10.91507374	     32.92195402	     46.63691484	      0.00000000	      0.00000000
     33.80685714	     -3.06483141	     -6.11601124	      3.84198142	      0.89197346	      0.92236154	      0.49401872	      0.85391133	      3.10847990	    -17.09442036	     15.22961988	     15.22961988	     16.79475550	      1.54177903	     -4.45184740	     26.96723726	     -7.90685767	      0.58213261	     27.12526520	     27.12526520	      6.97836334	    -13.50844838	      5.05599960	     -9.23341289	      8.08624404	      1.96355485	     30.39611749	    -16.53246155	     -3.61564569	     84.79330180	     44.50763072	      0.00000000	      0.00000000	     -8.35735921	     -8.36534841	    -10.85083864	     33.15262543	     46.63225564	      0.00000000	      0.00000000
     33.82050000	     -3.25088666	     -5.96074514	      3.77254841	      0.89117299	      0.92193127	      0.49074653	      1.30067814	      2.50036141	    -16.92259647	     16.66973744	     16.66973744	     18.06170238	      1.37482752	     -1.63177380	     27.14169244	     -7.45380204	      0.88366444	     27.95973114	     27.95973114	      8.06785607	    -14.18163718	      6.55058496	     -9.02219010	      7.88749850	      2.89525048	     28.13181008	    -17.95280608	     -3.97623464	     85.36651130	     44.55478933	      0.00000000	      0.00000000	     -7.79986613	     -8.75142683	     -8.94100220	     34.47347990	     46.35089971	      0.00000000	      0.00000000
